# Blender v2.79 (sub 0) OBJ File: ''
# www.blender.org
mtllib toycar.mtl
o ToyCar_Cube
v 2.291675 -1.000000 -1.000000
v 2.326073 -1.000000 1.000000
v -2.326073 -1.000000 1.000000
v -2.291674 -1.000000 -1.000000
v 2.291676 -0.055462 -0.999999
v 2.326072 -0.055462 1.000001
v -2.326073 1.000000 1.000000
v -2.291675 1.000000 -1.000000
v 2.291675 -0.055462 0.000001
v 0.000001 1.000000 -1.000000
v -0.000001 1.000000 1.000000
v -2.291675 1.000000 -0.000000
v -0.000000 1.000000 0.000000
v 2.291674 -0.055462 0.500001
v -1.145837 1.000000 -1.000000
v -1.163038 1.000000 1.000000
v -2.291675 1.000000 -0.500000
v 2.291676 -0.055462 -0.499999
v 1.145838 -0.055462 -1.000000
v 1.163035 -0.055462 1.000000
v -2.291676 1.000000 0.500000
v -0.000001 1.000000 0.500000
v 0.000000 1.000000 -0.500000
v 1.145837 -0.055462 0.000000
v -1.145838 1.000000 0.000000
v -1.145838 1.000000 -0.500000
v 1.145838 -0.055462 -0.500000
v 1.145837 -0.055462 0.500000
v -1.145838 1.000000 0.500000
v -0.699905 -0.498292 1.088096
v -0.699905 -0.498292 1.181999
v -0.644759 -0.503724 1.088096
v -0.644759 -0.503724 1.181999
v -0.591733 -0.519809 1.088096
v -0.591733 -0.519809 1.181999
v -0.542863 -0.545930 1.088096
v -0.542863 -0.545930 1.181999
v -0.500028 -0.581084 1.088096
v -0.500028 -0.581084 1.181999
v -0.464875 -0.623918 1.088096
v -0.464875 -0.623918 1.181999
v -0.438754 -0.672788 1.088096
v -0.438754 -0.672788 1.181999
v -0.422668 -0.725814 1.088096
v -0.422668 -0.725814 1.181999
v -0.417237 -0.780960 1.088096
v -0.417237 -0.780960 1.181999
v -0.422668 -0.836106 1.088096
v -0.422668 -0.836106 1.181999
v -0.438754 -0.889132 1.088096
v -0.438754 -0.889132 1.181999
v -0.464875 -0.938002 1.088096
v -0.464875 -0.938002 1.181999
v -0.500028 -0.980836 1.088096
v -0.500028 -0.980836 1.181999
v -0.542863 -1.015990 1.088096
v -0.542863 -1.015989 1.181999
v -0.591733 -1.042111 1.088096
v -0.591733 -1.042111 1.181999
v -0.644759 -1.058196 1.088096
v -0.644759 -1.058196 1.181999
v -0.699905 -1.063628 1.088096
v -0.699905 -1.063628 1.181999
v -0.755051 -1.058196 1.088096
v -0.755051 -1.058196 1.181999
v -0.808077 -1.042111 1.088096
v -0.808077 -1.042111 1.181999
v -0.856947 -1.015989 1.088096
v -0.856947 -1.015989 1.181999
v -0.899781 -0.980836 1.088096
v -0.899781 -0.980836 1.181999
v -0.934934 -0.938001 1.088096
v -0.934934 -0.938001 1.181999
v -0.961056 -0.889132 1.088096
v -0.961056 -0.889132 1.181999
v -0.977141 -0.836105 1.088096
v -0.977141 -0.836105 1.181999
v -0.982572 -0.780960 1.088096
v -0.982572 -0.780960 1.181999
v -0.977141 -0.725814 1.088096
v -0.977141 -0.725814 1.181999
v -0.961056 -0.672787 1.088096
v -0.961056 -0.672787 1.181999
v -0.934934 -0.623918 1.088096
v -0.934934 -0.623918 1.181999
v -0.899781 -0.581083 1.088096
v -0.899781 -0.581083 1.181999
v -0.856946 -0.545930 1.088096
v -0.856946 -0.545930 1.181999
v -0.808077 -0.519809 1.088096
v -0.808077 -0.519809 1.181999
v -0.755050 -0.503723 1.088096
v -0.755050 -0.503723 1.181999
v -0.699905 -0.498292 -1.197522
v -0.699905 -0.498292 -1.103618
v -0.644759 -0.503724 -1.197522
v -0.644759 -0.503724 -1.103618
v -0.591733 -0.519809 -1.197522
v -0.591733 -0.519809 -1.103618
v -0.542863 -0.545930 -1.197522
v -0.542863 -0.545930 -1.103618
v -0.500029 -0.581084 -1.197522
v -0.500029 -0.581084 -1.103618
v -0.464875 -0.623918 -1.197522
v -0.464875 -0.623918 -1.103618
v -0.438754 -0.672788 -1.197522
v -0.438754 -0.672788 -1.103618
v -0.422669 -0.725814 -1.197522
v -0.422669 -0.725814 -1.103618
v -0.417237 -0.780960 -1.197522
v -0.417237 -0.780960 -1.103618
v -0.422668 -0.836106 -1.197522
v -0.422668 -0.836106 -1.103618
v -0.438754 -0.889132 -1.197522
v -0.438754 -0.889132 -1.103618
v -0.464875 -0.938002 -1.197522
v -0.464875 -0.938002 -1.103618
v -0.500029 -0.980836 -1.197522
v -0.500029 -0.980836 -1.103618
v -0.542863 -1.015990 -1.197522
v -0.542863 -1.015990 -1.103618
v -0.591733 -1.042111 -1.197522
v -0.591733 -1.042111 -1.103618
v -0.644759 -1.058196 -1.197522
v -0.644759 -1.058196 -1.103618
v -0.699905 -1.063628 -1.197522
v -0.699905 -1.063628 -1.103618
v -0.755051 -1.058196 -1.197522
v -0.755051 -1.058196 -1.103618
v -0.808077 -1.042111 -1.197522
v -0.808077 -1.042111 -1.103618
v -0.856947 -1.015989 -1.197522
v -0.856947 -1.015989 -1.103618
v -0.899781 -0.980836 -1.197522
v -0.899781 -0.980836 -1.103618
v -0.934935 -0.938002 -1.197522
v -0.934935 -0.938002 -1.103618
v -0.961056 -0.889132 -1.197522
v -0.961056 -0.889132 -1.103618
v -0.977141 -0.836105 -1.197522
v -0.977141 -0.836105 -1.103618
v -0.982572 -0.780960 -1.197522
v -0.982572 -0.780960 -1.103618
v -0.977141 -0.725814 -1.197522
v -0.977141 -0.725814 -1.103618
v -0.961056 -0.672787 -1.197522
v -0.961056 -0.672787 -1.103618
v -0.934934 -0.623918 -1.197522
v -0.934934 -0.623918 -1.103618
v -0.899781 -0.581083 -1.197522
v -0.899781 -0.581083 -1.103618
v -0.856946 -0.545930 -1.197522
v -0.856946 -0.545930 -1.103618
v -0.808077 -0.519809 -1.197522
v -0.808077 -0.519809 -1.103618
v -0.755050 -0.503723 -1.197522
v -0.755050 -0.503723 -1.103618
v 0.837162 -0.498292 -1.197522
v 0.837162 -0.498292 -1.103618
v 0.892307 -0.503724 -1.197522
v 0.892307 -0.503724 -1.103618
v 0.945334 -0.519809 -1.197522
v 0.945334 -0.519809 -1.103618
v 0.994204 -0.545930 -1.197522
v 0.994204 -0.545930 -1.103618
v 1.037038 -0.581084 -1.197522
v 1.037038 -0.581084 -1.103618
v 1.072191 -0.623918 -1.197522
v 1.072191 -0.623918 -1.103618
v 1.098313 -0.672788 -1.197522
v 1.098313 -0.672788 -1.103618
v 1.114398 -0.725814 -1.197522
v 1.114398 -0.725814 -1.103618
v 1.119829 -0.780960 -1.197522
v 1.119829 -0.780960 -1.103618
v 1.114398 -0.836106 -1.197522
v 1.114398 -0.836106 -1.103618
v 1.098313 -0.889132 -1.197522
v 1.098313 -0.889132 -1.103618
v 1.072191 -0.938002 -1.197522
v 1.072191 -0.938002 -1.103618
v 1.037038 -0.980836 -1.197522
v 1.037038 -0.980836 -1.103618
v 0.994204 -1.015990 -1.197522
v 0.994204 -1.015990 -1.103618
v 0.945334 -1.042111 -1.197522
v 0.945334 -1.042111 -1.103618
v 0.892307 -1.058196 -1.197522
v 0.892307 -1.058196 -1.103618
v 0.837162 -1.063628 -1.197522
v 0.837162 -1.063628 -1.103618
v 0.782016 -1.058196 -1.197522
v 0.782016 -1.058196 -1.103618
v 0.728989 -1.042111 -1.197522
v 0.728989 -1.042111 -1.103618
v 0.680120 -1.015989 -1.197522
v 0.680120 -1.015989 -1.103618
v 0.637285 -0.980836 -1.197522
v 0.637285 -0.980836 -1.103618
v 0.602132 -0.938002 -1.197522
v 0.602132 -0.938002 -1.103618
v 0.576011 -0.889132 -1.197522
v 0.576011 -0.889132 -1.103618
v 0.559925 -0.836105 -1.197522
v 0.559925 -0.836105 -1.103618
v 0.554494 -0.780960 -1.197522
v 0.554494 -0.780960 -1.103618
v 0.559925 -0.725814 -1.197522
v 0.559925 -0.725814 -1.103618
v 0.576011 -0.672787 -1.197522
v 0.576011 -0.672787 -1.103618
v 0.602132 -0.623918 -1.197522
v 0.602132 -0.623918 -1.103618
v 0.637286 -0.581083 -1.197522
v 0.637286 -0.581083 -1.103618
v 0.680120 -0.545930 -1.197522
v 0.680120 -0.545930 -1.103618
v 0.728990 -0.519809 -1.197522
v 0.728990 -0.519809 -1.103618
v 0.782017 -0.503723 -1.197522
v 0.782017 -0.503723 -1.103618
v 0.837162 -0.498292 1.088096
v 0.837162 -0.498292 1.181999
v 0.892307 -0.503724 1.088096
v 0.892307 -0.503724 1.181999
v 0.945334 -0.519809 1.088096
v 0.945334 -0.519809 1.181999
v 0.994204 -0.545930 1.088096
v 0.994204 -0.545930 1.181999
v 1.037038 -0.581084 1.088096
v 1.037038 -0.581084 1.181999
v 1.072191 -0.623918 1.088096
v 1.072191 -0.623918 1.181999
v 1.098313 -0.672788 1.088096
v 1.098313 -0.672788 1.181999
v 1.114398 -0.725814 1.088096
v 1.114398 -0.725814 1.181999
v 1.119829 -0.780960 1.088096
v 1.119829 -0.780960 1.181999
v 1.114398 -0.836106 1.088096
v 1.114398 -0.836106 1.181999
v 1.098313 -0.889132 1.088096
v 1.098313 -0.889132 1.181999
v 1.072191 -0.938002 1.088096
v 1.072191 -0.938002 1.181999
v 1.037038 -0.980836 1.088096
v 1.037038 -0.980836 1.181999
v 0.994204 -1.015990 1.088096
v 0.994204 -1.015990 1.181999
v 0.945334 -1.042111 1.088096
v 0.945334 -1.042111 1.181999
v 0.892307 -1.058196 1.088096
v 0.892307 -1.058196 1.181999
v 0.837162 -1.063628 1.088096
v 0.837162 -1.063628 1.181999
v 0.782016 -1.058196 1.088096
v 0.782016 -1.058196 1.181999
v 0.728989 -1.042111 1.088096
v 0.728989 -1.042111 1.181999
v 0.680120 -1.015989 1.088096
v 0.680120 -1.015989 1.181999
v 0.637285 -0.980836 1.088096
v 0.637285 -0.980836 1.181999
v 0.602132 -0.938002 1.088096
v 0.602132 -0.938002 1.181999
v 0.576011 -0.889132 1.088096
v 0.576011 -0.889132 1.181999
v 0.559925 -0.836105 1.088096
v 0.559925 -0.836105 1.181999
v 0.554494 -0.780960 1.088096
v 0.554494 -0.780960 1.181999
v 0.559925 -0.725814 1.088096
v 0.559925 -0.725814 1.181999
v 0.576011 -0.672787 1.088096
v 0.576011 -0.672787 1.181999
v 0.602132 -0.623918 1.088096
v 0.602132 -0.623918 1.181999
v 0.637286 -0.581083 1.088096
v 0.637286 -0.581083 1.181999
v 0.680120 -0.545930 1.088096
v 0.680120 -0.545930 1.181999
v 0.728990 -0.519809 1.088096
v 0.728990 -0.519809 1.181999
v 0.782017 -0.503723 1.088096
v 0.782017 -0.503723 1.181999
vn 0.0000 -1.0000 -0.0000
vn 0.0000 1.0000 0.0000
vn 0.9998 0.0137 -0.0172
vn -0.0000 -0.0000 1.0000
vn -0.9998 0.0064 -0.0172
vn 0.0000 0.0000 -1.0000
vn 0.6747 0.7380 -0.0116
vn 0.6775 0.7355 0.0000
vn 0.0980 0.9952 0.0000
vn 0.2903 0.9569 0.0000
vn 0.4714 0.8819 0.0000
vn 0.6344 0.7730 0.0000
vn 0.7730 0.6344 0.0000
vn 0.8819 0.4714 0.0000
vn 0.9569 0.2903 0.0000
vn 0.9952 0.0980 0.0000
vn 0.9952 -0.0980 0.0000
vn 0.9569 -0.2903 0.0000
vn 0.8819 -0.4714 0.0000
vn 0.7730 -0.6344 0.0000
vn 0.6344 -0.7730 0.0000
vn 0.4714 -0.8819 0.0000
vn 0.2903 -0.9569 0.0000
vn 0.0980 -0.9952 0.0000
vn -0.0980 -0.9952 0.0000
vn -0.2903 -0.9569 0.0000
vn -0.4714 -0.8819 0.0000
vn -0.6344 -0.7730 0.0000
vn -0.7730 -0.6344 0.0000
vn -0.8819 -0.4714 0.0000
vn -0.9569 -0.2903 0.0000
vn -0.9952 -0.0980 0.0000
vn -0.9952 0.0980 0.0000
vn -0.9569 0.2903 0.0000
vn -0.8819 0.4714 0.0000
vn -0.7730 0.6344 0.0000
vn -0.6344 0.7730 0.0000
vn -0.4714 0.8819 0.0000
vn -0.2903 0.9569 0.0000
vn -0.0980 0.9952 0.0000
usemtl Material
s off
f 1//1 2//1 3//1 4//1
f 29//2 21//2 7//2 16//2
f 1//3 5//3 18//3 9//3 14//3 6//3 2//3
f 2//4 6//4 20//4 11//4 16//4 7//4 3//4
f 3//5 7//5 21//5 12//5 17//5 8//5 4//5
f 5//6 1//6 4//6 8//6 15//6 10//6 19//6
f 28//7 22//7 11//7 20//7
f 27//8 23//8 13//8 24//8
f 26//2 17//2 12//2 25//2
f 23//2 26//2 25//2 13//2
f 10//2 15//2 26//2 23//2
f 15//2 8//2 17//2 26//2
f 18//2 27//2 24//2 9//2
f 5//2 19//2 27//2 18//2
f 19//8 10//8 23//8 27//8
f 14//2 28//2 20//2 6//2
f 9//2 24//2 28//2 14//2
f 24//8 13//8 22//8 28//8
f 22//2 29//2 16//2 11//2
f 13//2 25//2 29//2 22//2
f 25//2 12//2 21//2 29//2
f 30//9 31//9 33//9 32//9
f 32//10 33//10 35//10 34//10
f 34//11 35//11 37//11 36//11
f 36//12 37//12 39//12 38//12
f 38//13 39//13 41//13 40//13
f 40//14 41//14 43//14 42//14
f 42//15 43//15 45//15 44//15
f 44//16 45//16 47//16 46//16
f 46//17 47//17 49//17 48//17
f 48//18 49//18 51//18 50//18
f 50//19 51//19 53//19 52//19
f 52//20 53//20 55//20 54//20
f 54//21 55//21 57//21 56//21
f 56//22 57//22 59//22 58//22
f 58//23 59//23 61//23 60//23
f 60//24 61//24 63//24 62//24
f 62//25 63//25 65//25 64//25
f 64//26 65//26 67//26 66//26
f 66//27 67//27 69//27 68//27
f 68//28 69//28 71//28 70//28
f 70//29 71//29 73//29 72//29
f 72//30 73//30 75//30 74//30
f 74//31 75//31 77//31 76//31
f 76//32 77//32 79//32 78//32
f 78//33 79//33 81//33 80//33
f 80//34 81//34 83//34 82//34
f 82//35 83//35 85//35 84//35
f 84//36 85//36 87//36 86//36
f 86//37 87//37 89//37 88//37
f 88//38 89//38 91//38 90//38
f 33//4 31//4 93//4 91//4 89//4 87//4 85//4 83//4 81//4 79//4 77//4 75//4 73//4 71//4 69//4 67//4 65//4 63//4 61//4 59//4 57//4 55//4 53//4 51//4 49//4 47//4 45//4 43//4 41//4 39//4 37//4 35//4
f 90//39 91//39 93//39 92//39
f 92//40 93//40 31//40 30//40
f 30//6 32//6 34//6 36//6 38//6 40//6 42//6 44//6 46//6 48//6 50//6 52//6 54//6 56//6 58//6 60//6 62//6 64//6 66//6 68//6 70//6 72//6 74//6 76//6 78//6 80//6 82//6 84//6 86//6 88//6 90//6 92//6
f 94//9 95//9 97//9 96//9
f 96//10 97//10 99//10 98//10
f 98//11 99//11 101//11 100//11
f 100//12 101//12 103//12 102//12
f 102//13 103//13 105//13 104//13
f 104//14 105//14 107//14 106//14
f 106//15 107//15 109//15 108//15
f 108//16 109//16 111//16 110//16
f 110//17 111//17 113//17 112//17
f 112//18 113//18 115//18 114//18
f 114//19 115//19 117//19 116//19
f 116//20 117//20 119//20 118//20
f 118//21 119//21 121//21 120//21
f 120//22 121//22 123//22 122//22
f 122//23 123//23 125//23 124//23
f 124//24 125//24 127//24 126//24
f 126//25 127//25 129//25 128//25
f 128//26 129//26 131//26 130//26
f 130//27 131//27 133//27 132//27
f 132//28 133//28 135//28 134//28
f 134//29 135//29 137//29 136//29
f 136//30 137//30 139//30 138//30
f 138//31 139//31 141//31 140//31
f 140//32 141//32 143//32 142//32
f 142//33 143//33 145//33 144//33
f 144//34 145//34 147//34 146//34
f 146//35 147//35 149//35 148//35
f 148//36 149//36 151//36 150//36
f 150//37 151//37 153//37 152//37
f 152//38 153//38 155//38 154//38
f 97//4 95//4 157//4 155//4 153//4 151//4 149//4 147//4 145//4 143//4 141//4 139//4 137//4 135//4 133//4 131//4 129//4 127//4 125//4 123//4 121//4 119//4 117//4 115//4 113//4 111//4 109//4 107//4 105//4 103//4 101//4 99//4
f 154//39 155//39 157//39 156//39
f 156//40 157//40 95//40 94//40
f 94//6 96//6 98//6 100//6 102//6 104//6 106//6 108//6 110//6 112//6 114//6 116//6 118//6 120//6 122//6 124//6 126//6 128//6 130//6 132//6 134//6 136//6 138//6 140//6 142//6 144//6 146//6 148//6 150//6 152//6 154//6 156//6
f 158//9 159//9 161//9 160//9
f 160//10 161//10 163//10 162//10
f 162//11 163//11 165//11 164//11
f 164//12 165//12 167//12 166//12
f 166//13 167//13 169//13 168//13
f 168//14 169//14 171//14 170//14
f 170//15 171//15 173//15 172//15
f 172//16 173//16 175//16 174//16
f 174//17 175//17 177//17 176//17
f 176//18 177//18 179//18 178//18
f 178//19 179//19 181//19 180//19
f 180//20 181//20 183//20 182//20
f 182//21 183//21 185//21 184//21
f 184//22 185//22 187//22 186//22
f 186//23 187//23 189//23 188//23
f 188//24 189//24 191//24 190//24
f 190//25 191//25 193//25 192//25
f 192//26 193//26 195//26 194//26
f 194//27 195//27 197//27 196//27
f 196//28 197//28 199//28 198//28
f 198//29 199//29 201//29 200//29
f 200//30 201//30 203//30 202//30
f 202//31 203//31 205//31 204//31
f 204//32 205//32 207//32 206//32
f 206//33 207//33 209//33 208//33
f 208//34 209//34 211//34 210//34
f 210//35 211//35 213//35 212//35
f 212//36 213//36 215//36 214//36
f 214//37 215//37 217//37 216//37
f 216//38 217//38 219//38 218//38
f 161//4 159//4 221//4 219//4 217//4 215//4 213//4 211//4 209//4 207//4 205//4 203//4 201//4 199//4 197//4 195//4 193//4 191//4 189//4 187//4 185//4 183//4 181//4 179//4 177//4 175//4 173//4 171//4 169//4 167//4 165//4 163//4
f 218//39 219//39 221//39 220//39
f 220//40 221//40 159//40 158//40
f 158//6 160//6 162//6 164//6 166//6 168//6 170//6 172//6 174//6 176//6 178//6 180//6 182//6 184//6 186//6 188//6 190//6 192//6 194//6 196//6 198//6 200//6 202//6 204//6 206//6 208//6 210//6 212//6 214//6 216//6 218//6 220//6
f 222//9 223//9 225//9 224//9
f 224//10 225//10 227//10 226//10
f 226//11 227//11 229//11 228//11
f 228//12 229//12 231//12 230//12
f 230//13 231//13 233//13 232//13
f 232//14 233//14 235//14 234//14
f 234//15 235//15 237//15 236//15
f 236//16 237//16 239//16 238//16
f 238//17 239//17 241//17 240//17
f 240//18 241//18 243//18 242//18
f 242//19 243//19 245//19 244//19
f 244//20 245//20 247//20 246//20
f 246//21 247//21 249//21 248//21
f 248//22 249//22 251//22 250//22
f 250//23 251//23 253//23 252//23
f 252//24 253//24 255//24 254//24
f 254//25 255//25 257//25 256//25
f 256//26 257//26 259//26 258//26
f 258//27 259//27 261//27 260//27
f 260//28 261//28 263//28 262//28
f 262//29 263//29 265//29 264//29
f 264//30 265//30 267//30 266//30
f 266//31 267//31 269//31 268//31
f 268//32 269//32 271//32 270//32
f 270//33 271//33 273//33 272//33
f 272//34 273//34 275//34 274//34
f 274//35 275//35 277//35 276//35
f 276//36 277//36 279//36 278//36
f 278//37 279//37 281//37 280//37
f 280//38 281//38 283//38 282//38
f 225//4 223//4 285//4 283//4 281//4 279//4 277//4 275//4 273//4 271//4 269//4 267//4 265//4 263//4 261//4 259//4 257//4 255//4 253//4 251//4 249//4 247//4 245//4 243//4 241//4 239//4 237//4 235//4 233//4 231//4 229//4 227//4
f 282//39 283//39 285//39 284//39
f 284//40 285//40 223//40 222//40
f 222//6 224//6 226//6 228//6 230//6 232//6 234//6 236//6 238//6 240//6 242//6 244//6 246//6 248//6 250//6 252//6 254//6 256//6 258//6 260//6 262//6 264//6 266//6 268//6 270//6 272//6 274//6 276//6 278//6 280//6 282//6 284//6
